<mxfile host="app.diagrams.net" agent="Mozilla/5.0 (Macintosh; Intel Mac OS X 10_15_7) AppleWebKit/537.36 (KHTML, like Gecko) Chrome/131.0.0.0 Safari/537.36" version="26.0.6">
  <diagram name="Page-1" id="U6etFLWiM8MBS-rzrzbD">
    <mxGraphModel dx="1434" dy="725" grid="1" gridSize="10" guides="1" tooltips="1" connect="1" arrows="1" fold="1" page="1" pageScale="1" pageWidth="827" pageHeight="1169" math="0" shadow="0">
      <root>
        <mxCell id="0" />
        <mxCell id="1" parent="0" />
        <mxCell id="3LfVlhO2bpjecsU8abPW-12" value="" style="edgeStyle=orthogonalEdgeStyle;rounded=0;orthogonalLoop=1;jettySize=auto;html=1;" edge="1" parent="1" source="3LfVlhO2bpjecsU8abPW-14" target="3LfVlhO2bpjecsU8abPW-17">
          <mxGeometry relative="1" as="geometry" />
        </mxCell>
        <mxCell id="3LfVlhO2bpjecsU8abPW-13" value="7.Load config.json" style="edgeLabel;html=1;align=center;verticalAlign=middle;resizable=0;points=[];" vertex="1" connectable="0" parent="3LfVlhO2bpjecsU8abPW-12">
          <mxGeometry x="-0.356" y="2" relative="1" as="geometry">
            <mxPoint as="offset" />
          </mxGeometry>
        </mxCell>
        <mxCell id="3LfVlhO2bpjecsU8abPW-14" value="Amazon S3" style="sketch=0;outlineConnect=0;fontColor=#232F3E;gradientColor=none;strokeColor=#ffffff;fillColor=#232F3E;dashed=0;verticalLabelPosition=middle;verticalAlign=bottom;align=center;html=1;whiteSpace=wrap;fontSize=10;fontStyle=1;spacing=3;shape=mxgraph.aws4.productIcon;prIcon=mxgraph.aws4.s3;" vertex="1" parent="1">
          <mxGeometry x="559.85" y="20" width="80" height="100" as="geometry" />
        </mxCell>
        <mxCell id="3LfVlhO2bpjecsU8abPW-15" value="" style="edgeStyle=orthogonalEdgeStyle;rounded=0;orthogonalLoop=1;jettySize=auto;html=1;" edge="1" parent="1" source="3LfVlhO2bpjecsU8abPW-17" target="3LfVlhO2bpjecsU8abPW-18">
          <mxGeometry relative="1" as="geometry">
            <mxPoint x="528.35" y="196.60000000000002" as="targetPoint" />
          </mxGeometry>
        </mxCell>
        <mxCell id="3LfVlhO2bpjecsU8abPW-16" value="8.Download config.json" style="edgeLabel;html=1;align=center;verticalAlign=middle;resizable=0;points=[];" vertex="1" connectable="0" parent="3LfVlhO2bpjecsU8abPW-15">
          <mxGeometry x="0.3052" relative="1" as="geometry">
            <mxPoint x="28" as="offset" />
          </mxGeometry>
        </mxCell>
        <mxCell id="3LfVlhO2bpjecsU8abPW-17" value="CDN" style="points=[];aspect=fixed;html=1;align=center;shadow=0;dashed=0;fillColor=#FF6A00;strokeColor=none;shape=mxgraph.alibaba_cloud.cdn_content_distribution_network;" vertex="1" parent="1">
          <mxGeometry x="573.85" y="175.39999999999998" width="51" height="42.3" as="geometry" />
        </mxCell>
        <mxCell id="3LfVlhO2bpjecsU8abPW-18" value="Mobile client" style="sketch=0;outlineConnect=0;fontColor=#232F3E;gradientColor=none;strokeColor=#232F3E;fillColor=#ffffff;dashed=0;verticalLabelPosition=bottom;verticalAlign=top;align=center;html=1;fontSize=12;fontStyle=0;aspect=fixed;shape=mxgraph.aws4.resourceIcon;resIcon=mxgraph.aws4.mobile_client;" vertex="1" parent="1">
          <mxGeometry x="140" y="132.7" width="127.7" height="127.7" as="geometry" />
        </mxCell>
        <mxCell id="3LfVlhO2bpjecsU8abPW-25" value="BE bridge module" style="shape=module;align=left;spacingLeft=20;align=center;verticalAlign=top;whiteSpace=wrap;html=1;" vertex="1" parent="1">
          <mxGeometry x="110" y="310" width="270" height="330" as="geometry" />
        </mxCell>
        <mxCell id="3LfVlhO2bpjecsU8abPW-27" value="ConfigModel" style="swimlane;childLayout=stackLayout;horizontal=1;startSize=50;horizontalStack=0;rounded=1;fontSize=14;fontStyle=0;strokeWidth=2;resizeParent=0;resizeLast=1;shadow=0;dashed=0;align=center;arcSize=4;whiteSpace=wrap;html=1;" vertex="1" parent="1">
          <mxGeometry x="160" y="490" width="160" height="120" as="geometry" />
        </mxCell>
        <mxCell id="3LfVlhO2bpjecsU8abPW-28" value="-init&lt;br&gt;+isNeedUpdate" style="align=left;strokeColor=none;fillColor=none;spacingLeft=4;fontSize=12;verticalAlign=top;resizable=0;rotatable=0;part=1;html=1;" vertex="1" parent="3LfVlhO2bpjecsU8abPW-27">
          <mxGeometry y="50" width="160" height="70" as="geometry" />
        </mxCell>
        <mxCell id="3LfVlhO2bpjecsU8abPW-29" value="ConfigManager" style="swimlane;childLayout=stackLayout;horizontal=1;startSize=50;horizontalStack=0;rounded=1;fontSize=14;fontStyle=0;strokeWidth=2;resizeParent=0;resizeLast=1;shadow=0;dashed=0;align=center;arcSize=4;whiteSpace=wrap;html=1;" vertex="1" parent="1">
          <mxGeometry x="160" y="360" width="160" height="90" as="geometry" />
        </mxCell>
        <mxCell id="3LfVlhO2bpjecsU8abPW-30" value="-downloadConfig" style="align=left;strokeColor=none;fillColor=none;spacingLeft=4;fontSize=12;verticalAlign=top;resizable=0;rotatable=0;part=1;html=1;" vertex="1" parent="3LfVlhO2bpjecsU8abPW-29">
          <mxGeometry y="50" width="160" height="40" as="geometry" />
        </mxCell>
        <mxCell id="3LfVlhO2bpjecsU8abPW-31" style="edgeStyle=orthogonalEdgeStyle;rounded=0;orthogonalLoop=1;jettySize=auto;html=1;exitX=0;exitY=0.5;exitDx=0;exitDy=0;entryX=0;entryY=0;entryDx=0;entryDy=35;entryPerimeter=0;" edge="1" parent="1" source="3LfVlhO2bpjecsU8abPW-28" target="3LfVlhO2bpjecsU8abPW-25">
          <mxGeometry relative="1" as="geometry" />
        </mxCell>
        <mxCell id="3LfVlhO2bpjecsU8abPW-32" value="isNeedUpdate" style="edgeLabel;html=1;align=center;verticalAlign=middle;resizable=0;points=[];" vertex="1" connectable="0" parent="3LfVlhO2bpjecsU8abPW-31">
          <mxGeometry x="0.9267" y="-2" relative="1" as="geometry">
            <mxPoint as="offset" />
          </mxGeometry>
        </mxCell>
        <mxCell id="3LfVlhO2bpjecsU8abPW-35" style="edgeStyle=orthogonalEdgeStyle;rounded=0;orthogonalLoop=1;jettySize=auto;html=1;exitX=0.5;exitY=1;exitDx=0;exitDy=0;entryX=0.5;entryY=0;entryDx=0;entryDy=0;dashed=1;" edge="1" parent="1" source="3LfVlhO2bpjecsU8abPW-34" target="3LfVlhO2bpjecsU8abPW-25">
          <mxGeometry relative="1" as="geometry" />
        </mxCell>
        <mxCell id="3LfVlhO2bpjecsU8abPW-34" value="" style="rounded=0;whiteSpace=wrap;html=1;" vertex="1" parent="1">
          <mxGeometry x="183.85000000000002" y="197.7" width="40" height="20" as="geometry" />
        </mxCell>
      </root>
    </mxGraphModel>
  </diagram>
</mxfile>
